<?xml version="1.0" encoding="UTF-8"?> <svg xmlns="http://www.w3.org/2000/svg" width="183" height="52" viewBox="0 0 183 52" fill="none"><path d="M5.33961 31.446C10.2107 35.7217 16.3216 35.1928 21.0155 29.242C21.2369 28.9775 21.4141 28.7571 21.5912 28.4927C18.9785 26.7736 17.2958 24.8341 16.4102 23.688C15.0374 21.9248 12.6462 18.5748 10.4321 17.1201C8.21795 15.6655 4.80822 15.2688 2.72695 16.9438C0.645687 18.6189 0.247147 22.7182 2.41698 26.5091C3.08121 27.6992 5.11819 31.2256 5.11819 31.2256C5.11819 31.2256 5.16248 31.2697 5.20676 31.3138C5.25104 31.3578 5.29532 31.4019 5.33961 31.446Z" fill="url(#paint0_linear)"></path><path d="M5.33958 31.446C5.29529 31.4019 5.25101 31.3578 5.20673 31.3137C5.16245 31.2697 5.16245 31.2697 5.11816 31.2256C7.37656 35.1927 10.1221 39.9974 11.6277 42.9067C13.8418 47.2265 17.4286 55.4252 27.2593 48.064C29.7834 46.2126 32.4403 43.6119 35.1415 40.5704C19.1113 42.8185 7.64225 33.4296 5.33958 31.446Z" fill="url(#paint1_linear)"></path><path d="M52.9426 0.50215C52.9426 0.50215 46.3889 -3.11237 36.204 9.05358C31.1115 15.1365 27.5246 20.8669 21.5908 28.4486C26.1076 31.4019 33.3699 33.6499 43.8205 29.5506C48.3373 23.2031 52.2784 16.7234 54.4482 12.2714C59.2307 2.61797 52.9426 0.50215 52.9426 0.50215Z" fill="url(#paint2_linear)"></path><path d="M21.6357 28.4485C21.4586 28.713 21.2372 28.9334 21.06 29.1978C16.3218 35.1927 10.2109 35.7216 5.33984 31.4459C7.64252 33.4295 19.1116 42.8184 35.1418 40.5704C38.1087 37.2203 41.1199 33.3854 43.8654 29.5505C33.4148 33.6939 26.1525 31.4459 21.6357 28.4485Z" fill="url(#paint3_linear)"></path><path d="M68.4862 24.8342L64.2794 34.0468L60.0283 24.8342H56.3086L64.2794 42.422L72.2502 24.8342H68.4862Z" fill="white"></path><path d="M82.8338 42.3778C76.6786 42.3778 73.3574 37.7494 73.3574 33.3415C73.3574 28.9335 76.6786 24.3052 82.8338 24.3052C86.5535 24.3052 91.7346 27.3026 91.7346 33.9586V34.4435H77.1657V34.6198C77.3871 37.2646 79.8226 39.3804 82.701 39.3804C84.6937 39.3804 86.465 38.4547 87.8377 36.7356L90.7161 38.3225C88.5905 40.8791 85.8007 42.3337 82.8338 42.3778ZM82.3467 27.2585C79.7783 27.2585 77.8299 28.8894 77.21 31.4901L77.1657 31.7105H87.7934L87.7049 31.4901C86.9078 28.8454 84.9151 27.2585 82.3467 27.2585Z" fill="white"></path><path d="M114.319 42.3778C111.529 42.3778 109.093 41.4521 106.702 39.4685L109.005 37.1323C110.466 38.631 112.636 39.6008 114.54 39.6008C116.71 39.6008 118.216 38.3665 118.216 37.2205C118.216 36.0744 117.418 35.3251 115.78 35.0165L113.654 34.6198C108.562 33.6941 107.499 32.0191 107.499 29.8151C107.499 27.0822 109.802 24.3052 114.186 24.3052C116.533 24.3052 118.614 25.0104 120.872 26.5973L118.968 28.9335C117.418 27.6993 115.869 27.0822 114.274 27.0822C112.592 27.0822 110.865 27.9197 110.865 29.4625C110.865 30.5204 111.662 31.1816 113.3 31.4901L117.108 32.1954C120.164 32.7684 121.581 34.179 121.581 36.6915C121.581 39.3804 119.278 42.3778 114.319 42.3778Z" fill="white"></path><path d="M133.537 42.3778C127.382 42.3778 124.061 37.7494 124.061 33.3415C124.061 28.9335 127.382 24.3052 133.537 24.3052C137.257 24.3052 142.438 27.3026 142.438 33.9586V34.4435H127.869V34.6198C128.09 37.2646 130.526 39.3804 133.404 39.3804C135.397 39.3804 137.168 38.4547 138.541 36.7356L141.419 38.3225C139.294 40.8791 136.504 42.3337 133.537 42.3778ZM133.05 27.2585C130.481 27.2585 128.533 28.8894 127.913 31.4901L127.869 31.7105H138.497L138.408 31.4901C137.611 28.8454 135.618 27.2585 133.05 27.2585Z" fill="white"></path><path d="M164.933 42.3778C159.353 42.3778 156.032 37.7935 156.032 33.3415C156.032 28.9776 159.708 24.3052 165.11 24.3052C167.457 24.3052 169.494 25.2308 170.557 26.8177L170.601 26.9059H170.867L170.955 26.7295V24.7901H174.365V41.8929H170.955V39.7771H170.69L170.557 39.8652C169.361 41.408 167.236 42.3778 164.933 42.3778ZM165.42 27.4789C162.232 27.4789 159.663 30.1237 159.663 33.3415C159.663 36.5593 162.232 39.2041 165.42 39.2041C168.564 39.2041 171.132 36.5593 171.132 33.3415C171.088 30.1237 168.564 27.4789 165.42 27.4789Z" fill="white"></path><path d="M183 19.5886H179.59V41.9369H183V19.5886Z" fill="white"></path><path d="M147.53 41.937V27.9638H145.404V24.79H147.53V19.5005H150.94V24.79H153.951V27.9638H150.94V41.937H147.53Z" fill="white"></path><path d="M104.089 24.3491C102.008 24.3491 100.237 24.8781 98.8638 25.7597V24.834H95.4541V41.8928H98.8638V30.3439C99.7495 28.4485 101.476 27.3024 103.602 27.3024C104.045 27.3024 104.488 27.3465 104.886 27.4347V24.3491C104.621 24.3491 104.355 24.3491 104.089 24.3491Z" fill="white"></path><defs><linearGradient id="paint0_linear" x1="16.7621" y1="40.8841" x2="6.81095" y2="12.9411" gradientUnits="userSpaceOnUse"><stop stop-color="#2A3795"></stop><stop offset="0.6388" stop-color="#27AAE1"></stop><stop offset="1" stop-color="#8ED5F6"></stop></linearGradient><linearGradient id="paint1_linear" x1="16.822" y1="51.4997" x2="19.936" y2="36.728" gradientUnits="userSpaceOnUse"><stop offset="0.0501028" stop-color="#00A84F"></stop><stop offset="0.4255" stop-color="#50B848"></stop><stop offset="0.6053" stop-color="#6CBE45"></stop><stop offset="0.8456" stop-color="#85C441"></stop><stop offset="1" stop-color="#8DC63F"></stop></linearGradient><linearGradient id="paint2_linear" x1="37.7696" y1="-0.739174" x2="39.8058" y2="30.3045" gradientUnits="userSpaceOnUse"><stop stop-color="#00A84F"></stop><stop offset="0.4816" stop-color="#50B848"></stop><stop offset="0.6438" stop-color="#6CBE45"></stop><stop offset="0.8606" stop-color="#85C441"></stop><stop offset="1" stop-color="#8DC63F"></stop></linearGradient><linearGradient id="paint3_linear" x1="17.9481" y1="9.22845" x2="29.4551" y2="46.3168" gradientUnits="userSpaceOnUse"><stop stop-color="#00A84F"></stop><stop offset="0.5325" stop-color="#50B848"></stop><stop offset="1" stop-color="#8DC63F"></stop></linearGradient></defs></svg> 